<?xml version="1.0" standalone="no"?>
<!DOCTYPE svg PUBLIC "-//W3C//DTD SVG 20010904//EN"
 "http://www.w3.org/TR/2001/REC-SVG-20010904/DTD/svg10.dtd">
<svg version="1.0" xmlns="http://www.w3.org/2000/svg"
 width="1278.000000pt" height="1280.000000pt" viewBox="0 0 1278.000000 1280.000000"
 preserveAspectRatio="xMidYMid meet">
<metadata>
Created by potrace 1.15, written by Peter Selinger 2001-2017
</metadata>
<g transform="translate(0.000000,1280.000000) scale(0.100000,-0.100000)"
fill="#000000" stroke="none">
<path d="M5730 12788 c-375 -28 -764 -139 -1065 -303 -548 -299 -995 -819
-1310 -1525 -131 -293 -246 -628 -334 -970 -137 -529 -219 -1021 -321 -1935
-74 -661 -93 -754 -191 -945 -220 -427 -692 -684 -1425 -775 -135 -17 -548
-39 -570 -31 -8 3 -14 2 -14 -2 0 -8 172 -104 295 -165 202 -100 450 -189 644
-230 88 -18 138 -22 296 -22 125 0 211 5 250 14 170 38 337 116 474 219 47 35
79 56 71 47 -8 -10 -48 -43 -90 -75 -218 -166 -450 -264 -725 -306 -120 -18
-429 -21 -559 -4 -49 6 -90 9 -92 7 -2 -2 10 -53 25 -113 115 -437 326 -715
633 -834 134 -52 251 -71 485 -77 l213 -6 -6 -26 c-44 -200 -111 -291 -248
-334 -63 -20 -92 -22 -268 -22 -109 0 -198 -1 -198 -3 0 -9 126 -159 195 -231
204 -214 396 -343 781 -526 97 -47 171 -87 163 -89 -8 -3 -165 -51 -349 -106
-1093 -330 -1048 -315 -1205 -412 -406 -253 -704 -650 -927 -1238 -54 -142
-100 -282 -207 -625 -49 -159 -104 -330 -121 -379 -16 -50 -30 -97 -30 -107 0
-25 327 -338 449 -430 60 -45 158 -106 225 -139 l119 -60 2218 0 c1688 0 2218
-3 2221 -12 3 -9 208 -9 874 0 505 7 1907 12 3346 12 l2477 0 78 25 c141 45
263 123 518 336 89 74 182 150 208 169 26 20 47 43 47 54 0 18 -189 477 -362
876 -408 946 -806 1463 -1277 1661 -53 22 -1821 519 -1847 519 -2 0 38 48 89
108 489 566 754 1319 828 2352 15 212 15 792 0 1030 -54 854 -219 1890 -401
2530 -184 643 -457 1228 -783 1675 -219 301 -518 598 -807 801 -527 371 -1128
573 -1860 624 -169 11 -466 11 -630 -2z"/>
</g>
</svg>
